<?xml version="1.0" encoding="UTF-8"?>
<!-- Uploaded to: SVG Repo, www.svgrepo.com, Generator: SVG Repo Mixer Tools -->
<svg id="_x32_" width="800px" height="800px" version="1.1" viewBox="0 0 512 512" xml:space="preserve" xmlns="http://www.w3.org/2000/svg">
<style type="text/css">
	.st0{fill:#000000;}
</style>

	<path class="st0" d="m198.74 439.89c-5.698-3.854-12.636-6.128-20.013-6.119-4.921 0-9.659 1-13.943 2.82-6.434 2.721-11.875 7.244-15.737 12.958-3.862 5.698-6.128 12.636-6.112 20.012-8e-3 4.912 0.993 9.651 2.812 13.934 2.728 6.443 7.244 11.884 12.95 15.737 5.706 3.871 12.652 6.128 20.029 6.128 4.912 0 9.643-1.001 13.926-2.82 6.442-2.721 11.883-7.253 15.746-12.958 3.854-5.698 6.12-12.645 6.12-20.022 0-4.911-1.009-9.642-2.82-13.934-2.728-6.441-7.252-11.882-12.958-15.736zm-6.715 35.287c-1.092 2.58-2.936 4.805-5.243 6.359-2.316 1.555-5.028 2.456-8.055 2.464-2.026-8e-3 -3.903-0.405-5.615-1.142-2.572-1.074-4.805-2.927-6.36-5.226-1.555-2.324-2.456-5.044-2.464-8.072 9e-3 -2.018 0.413-3.887 1.133-5.615 1.083-2.572 2.936-4.796 5.242-6.358 2.316-1.555 5.037-2.448 8.064-2.457 2.018 0 3.887 0.406 5.607 1.133 2.58 1.083 4.796 2.927 6.351 5.243 1.563 2.315 2.464 5.028 2.464 8.054 0 2.028-0.404 3.897-1.124 5.617z"/>
	<path class="st0" d="m216.52 283.81c7.278-2.117 11.462-9.75 9.328-17.036l-35.576-121.8c-2.117-7.286-9.742-11.462-17.028-9.337-7.285 2.126-11.453 9.75-9.336 17.028l35.576 121.81c2.133 7.278 9.758 11.462 17.036 9.329z"/>
	<path class="st0" d="m256.98 265.42c2.134 7.286 9.759 11.462 17.035 9.336 7.278-2.125 11.463-9.749 9.329-17.035l-32.996-112.97c-2.117-7.285-9.742-11.462-17.027-9.344-7.286 2.133-11.462 9.758-9.337 17.035l32.996 112.98z"/>
	<path class="st0" d="m314.55 256.62c2.125 7.286 9.758 11.462 17.035 9.337 7.278-2.126 11.462-9.759 9.328-17.036l-30.49-104.41c-2.126-7.286-9.75-11.462-17.028-9.328-7.285 2.117-11.462 9.75-9.336 17.027l30.491 104.41z"/>
	<path class="st0" d="m371.94 247.25c2.134 7.286 9.758 11.462 17.035 9.336 7.278-2.133 11.462-9.749 9.337-17.035l-27.828-95.275c-2.117-7.285-9.75-11.453-17.036-9.336-7.277 2.134-11.453 9.758-9.328 17.035l27.82 95.275z"/>
	<path class="st0" d="m168.73 392.84c-3.871 0-7.492-0.778-10.817-2.176-4.97-2.1-9.246-5.64-12.239-10.089-2.878-4.276-4.582-9.312-4.714-14.836 0.148-6.592 2.249-12.313 5.937-16.887 1.91-2.357 4.267-4.424 7.128-6.136 2.828-1.687 6.161-3.027 10.073-3.87l244.34-39.769c15.961-2.605 28.663-14.81 31.888-30.664l29.887-146.93v-0.016c0.347-1.704 0.513-3.44 0.513-5.16 0-5.938-2.035-11.743-5.855-16.424-4.93-6.02-12.306-9.518-20.088-9.518h-338.32l-11.526-39.602v8e-3c-5.293-17.705-19.814-31.118-37.875-34.988l-41.365-8.858c-6.997-1.505-13.893 2.961-15.399 9.965-1.496 7.004 2.96 13.901 9.974 15.398l41.348 8.865c8.798 1.885 15.878 8.418 18.458 17.052l75.584 259.63c-1.703 0.794-3.349 1.654-4.937 2.605-8.146 4.855-14.679 11.669-19.061 19.624-4.194 7.558-6.418 16.126-6.632 24.966h-0.033v1.348h0.033c0.165 6.906 1.637 13.529 4.192 19.575 4.094 9.667 10.891 17.846 19.458 23.634 8.56 5.796 18.971 9.196 30.052 9.187h137.27c-0.042-1.281-0.194-2.53-0.194-3.82 0-7.567 0.781-14.952 2.174-22.121h-139.25zm-54.728-276.53h330.79l-29.887 146.94c-1.076 5.293-5.31 9.362-10.635 10.222l-233.45 38.007-56.812-195.16z"/>
	<path class="st0" d="m421.6 324.48c-49.924 0-90.396 40.472-90.396 90.396s40.472 90.396 90.396 90.396c49.932 0 90.396-40.472 90.396-90.396s-40.464-90.396-90.396-90.396zm51.66 105.46h-36.593v36.585h-30.127v-36.585h-36.594v-30.134h36.594v-36.594h30.127v36.594h36.593z"/>

</svg>
